<?xml version="1.0" encoding="UTF-8" standalone="no"?>
<svg
   xmlns="http://www.w3.org/2000/svg"
   viewBox="0 0 207.88 69.839996"
   height="69.839996"
   width="207.88"
   version="1.1"><g transform="matrix(1.3333333,0,0,-1.3333333,0,69.84)"><path
       d="m 117.591,40.4859 c -0.638,0.1219 -0.874,0.6024 -0.741,1.2219 0.693,1.4918 2.606,0.1485 1.532,-1.009 -0.225,-0.1867 -0.419,-0.2828 -0.791,-0.2129 z M 88.0781,34.9727 c 0.0996,2.5433 1.5,4.9039 2.7254,7.0386 0.8442,1.3086 1.8266,2.5785 2.8293,3.768 -0.6687,-0.0977 -1.1738,-0.2594 -1.9133,-0.373 -0.3289,-0.0739 -0.3711,0.3648 -0.1648,0.4863 0.9023,0.2472 1.8406,0.4746 2.7512,0.6789 1.5918,1.8484 2.5859,2.8844 3.9175,4.1574 0.5332,0.5141 1.5071,1.4719 2.4176,1.6461 0.653,-0.018 1.961,-0.2734 1.41,-1.1227 -0.949,-1.1355 -1.801,-2.1015 -3.092,-3.6453 1.184,0.1797 2.371,0.3664 3.566,0.5477 0.528,-0.057 0.656,-0.3914 0.191,-0.6387 -0.325,-0.0801 -0.325,-0.0801 -4.4316,-0.766 -0.0617,-0.0566 -0.1262,-0.1238 -0.186,-0.1895 -0.8269,-1.1054 -1.6289,-2.1953 -2.4019,-3.3347 -1.6848,-2.6656 -3.1582,-5.2528 -3.7539,-8.3973 -0.0442,-0.2566 -0.0863,-0.7875 0.0984,-0.9824 0.2278,-8e-4 0.5891,0.1984 0.8281,0.3027 3.159,1.6321 5.7493,3.802 8.8019,5.7117 1.403,3.3426 2.997,6.7278 4.809,9.8579 0.399,0.4453 0.782,0.1949 0.622,-0.1235 -0.998,-1.7476 -3.542,-6.7246 -4.369,-9.0347 1.893,1.3054 4.736,3.023 6.778,3.9015 0.755,0.3254 1.823,0.118 2.266,-0.773 0.17,-0.3461 0.177,-1.1594 0.024,-1.5547 -0.806,-2.1168 -1.74,-3.7664 -2.639,-5.8012 -0.333,-0.8793 -1,-2.0515 -0.887,-2.7508 0.089,-0.557 3.741,2.0746 4.318,2.5489 0.211,0.1777 1.63,1.3343 1.881,1.5039 0.538,0.3672 0.934,0.6394 1.418,0.6168 0.965,-0.0504 1.91,-0.6832 1.367,-1.2703 -2.518,-2.7153 -5.228,-5.4793 -8.559,-6.354 -1.469,-0.391 -3.567,0.6969 -3.682,2.5829 -0.1,1.5746 0.4,3.0804 1.031,4.5148 0.282,0.6266 1.018,2.1996 1.359,2.8477 -2.228,-1.45 -4.29,-2.9387 -6.422,-4.6387 -0.711,-1.8996 -1.0473,-2.852 -1.568,-4.8715 -0.177,-0.7027 -1.0457,-0.5066 -0.8938,0.0488 0.2641,0.9801 1.0168,2.9489 1.3613,3.9973 -1.855,-1.3797 -3.7546,-3.0379 -5.8535,-3.9981 -1.1187,-0.5113 -2.3457,-0.7125 -3.2683,-0.4054 -2.0508,0.6953 -2.6856,2.1172 -2.6856,4.2676 v 0"
       style="fill:#008b8a"/><path
       d="M 0,24.3793 H 6.47031 V 23.298 H 3.88438 V 15.1586 H 2.58633 V 23.298 H 0 v 1.0813"
       style="fill:#231f20"/><path
       d="m 7.85,24.3793 h 4.9879 V 23.3848 H 9.13906 V 20.4609 H 12.634 V 19.4234 H 9.13906 V 16.2227 H 12.9625 V 15.1586 H 7.85 v 9.2207"
       style="fill:#231f20"/><path
       d="m 21.4188,24.0508 -0.0512,-1.116 c -0.3543,0.1472 -0.7016,0.257 -1.0414,0.3308 -0.3395,0.0739 -0.6852,0.1106 -1.0356,0.1106 -1.1074,0 -1.9871,-0.3235 -2.6383,-0.9699 -0.6507,-0.6465 -0.9765,-1.5192 -0.9765,-2.6176 0,-1.1117 0.3242,-1.9856 0.973,-2.6211 0.6496,-0.636 1.5344,-0.9535 2.6547,-0.9535 0.3551,0 0.7016,0.0336 1.0387,0.1007 0.3379,0.0668 0.6711,0.1665 0.9992,0.2969 l 0.0391,-1.1597 c -0.32,-0.104 -0.6621,-0.184 -1.0254,-0.2375 -0.3633,-0.0547 -0.7492,-0.0817 -1.1555,-0.0817 -1.5105,0 -2.7019,0.4098 -3.573,1.2301 -0.8731,0.8187 -1.3086,1.9359 -1.3086,3.3512 0,1.432 0.4441,2.5718 1.3343,3.4191 0.8883,0.8481 2.0844,1.2723 3.586,1.2723 0.4023,0 0.7867,-0.0289 1.1523,-0.0871 0.3657,-0.0582 0.709,-0.1465 1.0282,-0.2676"
       style="fill:#231f20"/><path
       d="m 22.9027,24.3793 h 1.2891 v -3.9012 h 4.1867 v 3.9012 h 1.2891 v -9.2207 h -1.2891 v 4.2648 h -4.1867 v -4.2648 h -1.2891 v 9.2207"
       style="fill:#231f20"/><path
       d="m 31.9824,24.3793 h 1.6262 l 4.0109,-7.1766 c 0.0563,-0.1043 0.125,-0.2632 0.2047,-0.4769 0.0805,-0.2137 0.1629,-0.466 0.2496,-0.7563 -0.0558,0.3371 -0.0992,0.6418 -0.1297,0.9118 -0.03,0.2707 -0.0453,0.5035 -0.0453,0.698 v 6.8 h 1.1848 v -9.2207 h -1.5809 l -4.0824,7.2418 c -0.0519,0.0863 -0.1144,0.2324 -0.1879,0.4375 -0.0742,0.2059 -0.1562,0.4726 -0.2469,0.8016 0.0649,-0.493 0.1118,-0.8739 0.1399,-1.1418 0.0277,-0.268 0.0422,-0.461 0.0422,-0.5778 v -6.7613 h -1.1852 v 9.2207"
       style="fill:#231f20"/><path
       d="m 41.3793,24.3793 h 1.2883 v -9.2207 h -1.2883 v 9.2207"
       style="fill:#231f20"/><path
       d="m 49.6527,24.1371 -0.1293,-1.1332 c -0.2855,0.1387 -0.58,0.2422 -0.8804,0.3113 -0.3016,0.0696 -0.6164,0.1043 -0.9457,0.1043 -0.559,0 -0.9965,-0.1043 -1.3094,-0.3117 -0.3152,-0.207 -0.4719,-0.4922 -0.4719,-0.8555 0,-0.2859 0.1067,-0.5449 0.3195,-0.7777 0.2122,-0.234 0.67,-0.543 1.3723,-0.9277 0.9133,-0.502 1.5426,-0.9578 1.8899,-1.3692 0.3457,-0.4117 0.5191,-0.8804 0.5191,-1.4082 0,-0.7832 -0.2871,-1.4254 -0.8609,-1.9265 -0.5735,-0.5032 -1.3098,-0.7535 -2.2106,-0.7535 -0.4375,0 -0.8547,0.0351 -1.2527,0.1046 -0.3992,0.0704 -0.7711,0.1747 -1.1168,0.3102 l 0.1297,1.2367 c 0.3808,-0.2 0.7488,-0.3484 1.1035,-0.4437 0.3558,-0.0957 0.7023,-0.1442 1.0402,-0.1442 0.5414,0 0.9774,0.1211 1.3063,0.3637 0.33,0.2426 0.4937,0.5625 0.4937,0.9605 0,0.6196 -0.6488,1.2965 -1.9449,2.0325 -0.218,0.1207 -0.3824,0.2164 -0.4949,0.2851 -0.4938,0.2856 -0.8797,0.6336 -1.161,1.0449 -0.2808,0.4114 -0.4211,0.8325 -0.4211,1.2657 0,0.7187 0.2735,1.2886 0.8207,1.7097 0.5481,0.4227 1.2938,0.6336 2.2379,0.6336 0.35,0 0.6903,-0.0265 1.0188,-0.0777 0.3289,-0.0523 0.6461,-0.1301 0.948,-0.234"
       style="fill:#231f20"/><path
       d="m 58.4758,24.0508 -0.0524,-1.116 c -0.3546,0.1472 -0.7023,0.257 -1.0421,0.3308 -0.3391,0.0739 -0.6844,0.1106 -1.0344,0.1106 -1.1086,0 -1.9875,-0.3235 -2.6383,-0.9699 -0.6516,-0.6465 -0.9766,-1.5192 -0.9766,-2.6176 0,-1.1117 0.3239,-1.9856 0.9731,-2.6211 0.6488,-0.636 1.5332,-0.9535 2.6547,-0.9535 0.3547,0 0.7004,0.0336 1.0382,0.1007 0.3375,0.0668 0.6708,0.1665 0.9997,0.2969 l 0.0382,-1.1597 c -0.3199,-0.104 -0.6617,-0.184 -1.0254,-0.2375 -0.3636,-0.0547 -0.7484,-0.0817 -1.1554,-0.0817 -1.5102,0 -2.7016,0.4098 -3.5735,1.2301 -0.8718,0.8187 -1.3082,1.9359 -1.3082,3.3512 0,1.432 0.445,2.5718 1.334,3.4191 0.8899,0.8481 2.0852,1.2723 3.5864,1.2723 0.4027,0 0.7867,-0.0289 1.1531,-0.0871 0.3652,-0.0582 0.7078,-0.1465 1.0289,-0.2676"
       style="fill:#231f20"/><path
       d="m 59.9594,24.3793 h 1.289 v -3.9012 h 4.1864 v 3.9012 h 1.2882 v -9.2207 h -1.2882 v 4.2648 h -4.1864 v -4.2648 h -1.289 v 9.2207"
       style="fill:#231f20"/><path
       d="m 69.0387,24.3793 h 4.9867 v -0.9945 h -3.6977 v -2.9239 h 3.4938 V 19.4234 H 70.3277 V 16.2227 H 74.15 v -1.0641 h -5.1113 v 9.2207"
       style="fill:#231f20"/><path
       d="m 80.0195,24.3793 h 1.2879 v -5.4289 c 0,-0.9871 0.1789,-1.7164 0.5364,-2.1906 0.3593,-0.4731 0.9074,-0.7102 1.6417,-0.7102 0.7411,0 1.3016,0.2539 1.6786,0.7617 0.3757,0.509 0.5632,1.2602 0.5632,2.2551 v 5.3129 h 1.2036 v -5.3387 c 0,-1.3496 -0.2903,-2.3633 -0.8696,-3.0394 -0.5828,-0.6774 -1.4539,-1.0157 -2.616,-1.0157 -1.1262,0 -1.9773,0.3309 -2.5566,0.9926 -0.5789,0.6614 -0.8692,1.6391 -0.8692,2.9324 v 5.4688"
       style="fill:#231f20"/><path
       d="m 89.2422,24.3793 h 1.6262 l 4.0105,-7.1766 c 0.0566,-0.1043 0.1262,-0.2632 0.2063,-0.4769 0.0796,-0.2137 0.1609,-0.466 0.2476,-0.7563 -0.0555,0.3371 -0.0992,0.6418 -0.1297,0.9118 -0.0301,0.2707 -0.0449,0.5035 -0.0449,0.698 v 6.8 h 1.1856 v -9.2207 h -1.5809 l -4.0832,7.2418 c -0.052,0.0863 -0.1133,0.2324 -0.1875,0.4375 -0.0734,0.2059 -0.1563,0.4726 -0.2461,0.8016 0.0644,-0.493 0.1113,-0.8739 0.1406,-1.1418 0.0274,-0.268 0.041,-0.461 0.041,-0.5778 v -6.7613 h -1.1855 v 9.2207"
       style="fill:#231f20"/><path
       d="m 98.6445,24.3793 h 1.2891 v -9.2207 h -1.2891 v 9.2207"
       style="fill:#231f20"/><path
       d="m 101.325,24.3793 h 1.372 l 2.706,-7.9875 2.802,7.9875 h 1.304 l -3.399,-9.2207 h -1.506 l -3.279,9.2207"
       style="fill:#231f20"/><path
       d="m 110.845,24.3793 h 4.988 v -0.9945 h -3.699 v -2.9239 h 3.495 v -1.0375 h -3.495 v -3.2007 h 3.823 v -1.0641 h -5.112 v 9.2207"
       style="fill:#231f20"/><path
       d="m 119.052,23.3848 v -3.1407 h 0.991 c 0.645,0 1.149,0.1422 1.512,0.4258 0.368,0.2832 0.551,0.6735 0.551,1.1707 0,0.5324 -0.17,0.9223 -0.511,1.1711 -0.34,0.2485 -0.869,0.3731 -1.591,0.3731 z m -1.281,0.9945 h 2.485 c 1.051,0 1.842,-0.1973 2.371,-0.5938 0.527,-0.396 0.793,-0.9851 0.793,-1.7679 0,-0.584 -0.173,-1.0696 -0.519,-1.4571 -0.346,-0.3871 -0.841,-0.65 -1.49,-0.7878 0.277,-0.0739 0.503,-0.1989 0.676,-0.3762 0.17,-0.1774 0.35,-0.4867 0.536,-0.9277 l 1.395,-3.3102 h -1.382 l -1.212,3.0187 c -0.16,0.3887 -0.361,0.6629 -0.604,0.8243 -0.242,0.1601 -0.586,0.2402 -1.031,0.2402 h -0.737 v -4.0832 h -1.281 v 9.2207"
       style="fill:#231f20"/><path
       d="m 130.325,24.1371 -0.13,-1.1332 c -0.286,0.1387 -0.579,0.2422 -0.88,0.3113 -0.3,0.0696 -0.616,0.1043 -0.944,0.1043 -0.561,0 -0.998,-0.1043 -1.311,-0.3117 -0.314,-0.207 -0.472,-0.4922 -0.472,-0.8555 0,-0.2859 0.106,-0.5449 0.32,-0.7777 0.211,-0.234 0.67,-0.543 1.374,-0.9277 0.911,-0.502 1.541,-0.9578 1.887,-1.3692 0.346,-0.4117 0.519,-0.8804 0.519,-1.4082 0,-0.7832 -0.286,-1.4254 -0.861,-1.9265 -0.572,-0.5032 -1.31,-0.7535 -2.21,-0.7535 -0.436,0 -0.854,0.0351 -1.252,0.1046 -0.399,0.0704 -0.771,0.1747 -1.117,0.3102 l 0.129,1.2367 c 0.382,-0.2 0.751,-0.3484 1.105,-0.4437 0.355,-0.0957 0.703,-0.1442 1.04,-0.1442 0.541,0 0.978,0.1211 1.306,0.3637 0.329,0.2426 0.493,0.5625 0.493,0.9605 0,0.6196 -0.648,1.2965 -1.946,2.0325 -0.216,0.1207 -0.38,0.2164 -0.493,0.2851 -0.493,0.2856 -0.88,0.6336 -1.161,1.0449 -0.281,0.4114 -0.421,0.8325 -0.421,1.2657 0,0.7187 0.275,1.2886 0.821,1.7097 0.547,0.4227 1.293,0.6336 2.237,0.6336 0.352,0 0.692,-0.0265 1.02,-0.0777 0.328,-0.0523 0.644,-0.1301 0.947,-0.234"
       style="fill:#231f20"/><path
       d="m 132.457,24.3793 h 1.288 v -9.2207 h -1.288 v 9.2207"
       style="fill:#231f20"/><path
       d="m 135.128,24.3793 h 6.471 V 23.298 h -2.587 v -8.1394 h -1.298 v 8.1394 h -2.586 v 1.0813"
       style="fill:#231f20"/><path
       d="m 146.189,26.9656 h 1.107 v -1.2367 h -1.107 z m -2.163,0 h 1.108 v -1.2367 h -1.108 z m 1.551,-3.7156 -1.832,-4.6926 h 3.603 z m -0.759,1.1293 h 1.57 l 3.616,-9.2207 h -1.397 l -0.888,2.3703 h -4.389 l -0.889,-2.3703 h -1.304 l 3.681,9.2207"
       style="fill:#231f20"/><path
       d="m 149.436,24.3793 h 6.469 V 23.298 h -2.587 v -8.1394 h -1.297 v 8.1394 h -2.585 v 1.0813"
       style="fill:#231f20"/><path
       d="m 94.6887,9.43789 h 2.4566 V 0.215625 H 94.6887 V 9.43789"
       style="fill:#231f20"/><path
       d="m 99.1184,9.43789 h 2.4546 v -7.3957 h 3.703 V 0.215625 H 99.1184 V 9.43789"
       style="fill:#231f20"/><path
       d="m 106.531,9.43789 h 3.749 l 1.689,-5.54258 c 0.064,-0.2207 0.118,-0.46758 0.159,-0.74218 0.041,-0.27422 0.071,-0.56915 0.095,-0.88555 0.029,0.3418 0.068,0.65625 0.115,0.94414 0.048,0.28711 0.102,0.53242 0.162,0.73555 l 1.688,5.49062 h 3.691 V 0.215625 H 115.57 V 6.40781 c 0,0.29375 0.009,0.59844 0.027,0.91446 0.016,0.3164 0.043,0.65351 0.077,1.01211 -0.061,-0.27618 -0.123,-0.54141 -0.189,-0.79454 -0.064,-0.25312 -0.132,-0.49179 -0.207,-0.71718 l -2.076,-6.607035 h -2.209 L 108.964,6.7125 c -0.069,0.225 -0.136,0.475 -0.2,0.74922 -0.068,0.275 -0.127,0.56562 -0.183,0.87266 0.029,-0.43633 0.056,-0.8293 0.075,-1.17774 0.019,-0.34805 0.028,-0.61055 0.028,-0.78789 V 0.215625 h -2.153 V 9.43789"
       style="fill:#231f20"/><path
       d="m 119.84,9.43789 h 6.409 v -1.7293 h -3.953 V 5.85703 h 3.728 V 4.10078 h -3.728 V 1.99805 h 4.1 V 0.215625 H 119.84 V 9.43789"
       style="fill:#231f20"/><path
       d="m 128.11,9.43789 h 3.07 l 2.665,-5.52851 c 0.091,-0.18672 0.197,-0.44454 0.318,-0.7754 0.12,-0.33125 0.255,-0.73632 0.401,-1.21601 -0.078,0.4543 -0.135,0.87109 -0.172,1.25078 -0.037,0.38086 -0.055,0.72969 -0.055,1.04609 v 5.22305 h 2.224 V 0.215625 h -3.057 l -2.771,5.731645 c -0.129,0.26367 -0.249,0.55039 -0.356,0.85937 -0.109,0.30899 -0.207,0.64531 -0.298,1.00938 0.087,-0.55039 0.15,-1.05469 0.192,-1.51563 0.04,-0.46055 0.063,-0.8668 0.063,-1.2168 V 0.215625 H 128.11 V 9.43789"
       style="fill:#231f20"/><path
       d="M 142.495,7.3793 141.3,3.91875 h 2.349 z m -1.435,2.05859 h 2.966 l 3.493,-9.222265 h -2.627 l -0.658,1.947655 h -3.551 l -0.688,-1.947655 h -2.432 l 3.497,9.222265"
       style="fill:#231f20"/><path
       d="m 147.976,9.43789 h 2.455 V 4.06758 c 0,-0.78711 0.117,-1.35664 0.35,-1.70625 0.234,-0.35156 0.609,-0.52617 1.124,-0.52617 0.529,0 0.927,0.18828 1.195,0.56523 0.268,0.37617 0.402,0.93164 0.402,1.66719 v 5.37031 h 2.344 V 4.06758 c 0,-1.35664 -0.327,-2.37422 -0.984,-3.05078 C 154.207,0.339844 153.223,0 151.907,0 c -1.303,0 -2.283,0.341797 -2.942,1.02266 -0.659,0.68164 -0.989,1.69609 -0.989,3.04492 v 5.37031"
       style="fill:#231f20"/></g></svg>
